# xmcd
#
# Track frame offsets:
#	150
#	19715
#	39325
#	56135
#	70064
#	84819
#	97979
#	113396
#	130471
#	145552
#	158875
#	175211
#
# Disc length: 2538 seconds
# Revision: 1
# Processed by: cddbd v1.5.2PL0 Copyright (c) Steve Scherf et al.
# Submitted via: dBpowerAMP V12.0
#
DISCID=8d09e80c
DTITLE=Kix Brooks - New to This Town
DYEAR=2012
DGENRE=Country
TTITLE0=New to this Town
TTITLE1=Moonshine Road
TTITLE2=Bring It On Home
TTITLE3=There's the Sun
TTITLE4=Complete 360
TTITLE5=My Baby
TTITLE6=Tattoo
TTITLE7=In the Right Place
TTITLE8=Next to That Woman
TTITLE9=Let's Do This Thing
TTITLE10=Closin' Time at Home
TTITLE11=She Knew I Was a Cowboy
EXTD=
EXTT0=
EXTT1=
EXTT2=
EXTT3=
EXTT4=
EXTT5=
EXTT6=
EXTT7=
EXTT8=
EXTT9=
EXTT10=
EXTT11=
PLAYORDER=
